<svg width="37" height="27" viewBox="0 0 37 27" fill="none" xmlns="http://www.w3.org/2000/svg">
<path d="M34.8708 2.06248H2.15563V24.8504H34.8708V2.06248Z" fill="white"/>
<path d="M35.9157 0H1.02788C0.462239 0 0 0.45654 0 1.0286V25.9714C0 26.5374 0.456124 27 1.02788 27H35.9096C36.4752 27 36.9375 26.5435 36.9375 25.9714V1.02258C36.9376 0.45654 36.4813 0 35.9157 0ZM34.8878 24.9366H2.05585V2.05118H34.8879L34.8878 24.9366Z" fill="#194F82"/>
<path d="M32.8127 4.12495H4.1252V22.8749H32.8127V4.12495Z" fill="#FFC10D"/>
<path d="M28.0905 6.46883C27.3059 6.46269 26.5881 6.90222 26.1563 7.56147C25.7974 8.09863 25.0067 8.09863 24.6539 7.56147C24.222 6.90222 23.5043 6.46278 22.7197 6.46883C21.5032 6.48101 20.53 7.47602 20.53 8.69679C20.53 10.1862 23.2062 13.1466 25.402 15.0938C27.6038 13.1161 30.28 10.1373 30.28 8.69679C30.2802 7.47592 29.2948 6.48705 28.0905 6.46883Z" fill="#56ACE0"/>
<path d="M28.0687 4.57809C27.0777 4.57809 26.1414 4.92465 25.4118 5.54481C24.6761 4.92465 23.7398 4.57809 22.7548 4.57809C20.4749 4.57809 18.6144 6.43855 18.6144 8.71847C18.6144 11.8314 23.7641 16.2454 24.7976 17.1026L24.8402 17.1391C25.1747 17.4127 25.661 17.4127 25.9893 17.133L26.0319 17.0965C27.0655 16.2331 32.2091 11.7462 32.2091 8.71838C32.2152 6.43244 30.3548 4.57809 28.0687 4.57809ZM25.4118 15.0841C23.2109 13.1447 20.5418 10.1959 20.5418 8.71236C20.5418 7.49641 21.5206 6.51144 22.7305 6.49319C23.5148 6.48708 24.2323 6.92487 24.664 7.58152C25.0227 8.11656 25.8131 8.11656 26.1658 7.58152C26.5974 6.92487 27.3148 6.48717 28.0992 6.49319C29.3152 6.50532 30.288 7.49641 30.288 8.71236C30.2879 10.1534 27.6127 13.1203 25.4118 15.0841Z" fill="#194F82"/>
<path d="M5.97407 6.82753H10.388C10.917 6.82753 11.3487 6.39584 11.3487 5.86692C11.3487 5.33799 10.917 4.90631 10.388 4.90631H5.97407C5.44514 4.90631 5.01346 5.33799 5.01346 5.86692C5.01337 6.40196 5.43903 6.82753 5.97407 6.82753Z" fill="#194F82"/>
<path d="M5.97407 10.5727H14.0056C14.5345 10.5727 14.9662 10.1411 14.9662 9.61213C14.9662 9.08321 14.5345 8.65152 14.0056 8.65152H5.97407C5.44514 8.65152 5.01346 9.08321 5.01346 9.61213C5.01948 10.1411 5.43903 10.5727 5.97407 10.5727Z" fill="#194F82"/>
<path d="M5.97407 14.3241H14.0056C14.5345 14.3241 14.9662 13.8924 14.9662 13.3635C14.9662 12.8345 14.5345 12.4029 14.0056 12.4029H5.97407C5.44514 12.4029 5.01346 12.8345 5.01346 13.3635C5.01948 13.8924 5.43903 14.3241 5.97407 14.3241Z" fill="#194F82"/>
<path d="M30.4148 20.6533H20.4073C19.8784 20.6533 19.4467 21.085 19.4467 21.6139C19.4467 22.1428 19.8784 22.5745 20.4073 22.5745H30.4148C30.9437 22.5745 31.3754 22.1428 31.3754 21.6139C31.3755 21.0788 30.9498 20.6533 30.4148 20.6533Z" fill="#194F82"/>
</svg>
