<svg width="41" height="27" viewBox="0 0 41 27" fill="none" xmlns="http://www.w3.org/2000/svg">
<path d="M40.9985 0.00550339H0V26.7615H40.9985V0.00550339Z" fill="#E0FAF2"/>
<path d="M40.9985 13.3776H0V26.7556H40.9985V13.3776Z" fill="#D1E9E2"/>
<path d="M40.9983 0H20.499V13.4074H40.9983V0Z" fill="#D1E9E2"/>
<path d="M40.9992 13.3538H20.5V26.7612H40.9992V13.3538Z" fill="#C3D9D2"/>
<path d="M0 26.7611L15.7349 13.9797L0 0.00550339V26.7611Z" fill="#F2FAF8"/>
<path d="M40.9996 26.7611L25.2647 13.9797L40.9996 0.00550339V26.7611Z" fill="#E6F0EE"/>
<path d="M22.9612 9.55083C21.9046 9.55083 20.9841 10.1696 20.4999 11.0852C20.0159 10.1696 19.0954 9.55083 18.0387 9.55083C16.1843 9.55083 14.9555 10.8979 14.9555 12.5596C14.9555 14.2211 15.8922 15.2268 18.0387 16.7433C19.9143 18.0684 20.4999 18.9982 20.4999 18.9982C20.4999 18.9982 21.0857 18.0684 22.9612 16.7433C25.1075 15.2268 26.0442 14.2212 26.0442 12.5596C26.0442 10.8979 24.8157 9.55083 22.9612 9.55083Z" fill="#D02D7F"/>
<path d="M22.9613 9.55083C21.9047 9.55083 20.9841 10.1696 20.5 11.0852C20.5 12.6786 20.5 18.9982 20.5 18.9982C20.5 18.9982 21.0857 18.0684 22.9613 16.7433C25.1076 15.2268 26.0443 14.2212 26.0443 12.5596C26.0443 10.8979 24.8157 9.55083 22.9613 9.55083Z" fill="#C42C78"/>
</svg>
