<svg width="67" height="67" viewBox="0 0 67 67" fill="none" xmlns="http://www.w3.org/2000/svg">
<path d="M33.5 67C52.0015 67 67 52.0015 67 33.5C67 14.9985 52.0015 0 33.5 0C14.9985 0 0 14.9985 0 33.5C0 52.0015 14.9985 67 33.5 67Z" fill="url(#paint0_linear_554_189)"/>
<path opacity="0.1" d="M19.8975 13.4171V51.8059L34.2068 66.1152C34.2114 66.1152 34.2159 66.1155 34.2205 66.1155C50.2569 66.1155 63.6541 54.8456 66.9432 39.7957L40.5646 13.4171H19.8975ZM27.3384 22.6791L27.3399 22.6812L27.3384 22.6821V22.6791ZM27.3384 25.6184L27.3364 25.6164L27.3382 25.6148L27.34 25.6164L27.3384 25.6184ZM27.3424 22.6794L27.3418 22.6797L27.3424 22.679V22.6794Z" fill="black"/>
<path d="M40.5616 13.4182H19.8945V51.807H48.5463V21.403L40.5616 13.4182Z" fill="white"/>
<path d="M29.4422 19.4563C29.4422 19.4563 29.5149 18.9652 29.7664 18.5616C29.8274 18.4636 29.8608 18.3511 29.8608 18.2356V16.966C29.8608 16.966 29.7816 16.3435 29.1705 16.1964C29.1705 16.1964 29.4194 15.6662 28.7744 15.5409H26.3975C25.5287 15.5409 24.8242 16.2452 24.8242 17.1142V18.0469C24.8242 18.2489 24.8919 18.4455 25.0184 18.6032C25.118 18.7272 25.2214 18.9221 25.2374 19.2042" fill="#64798A"/>
<path d="M27.2351 21.8331C27.2351 21.8331 27.7766 21.9186 28.3286 21.4196C28.4144 21.3421 28.5057 21.2712 28.6008 21.2057C28.6102 21.1992 28.6194 21.1925 28.6289 21.1861C28.8733 21.0219 29.3429 20.5668 29.4424 19.4563V17.9848C29.4424 17.9848 29.3858 17.4641 28.8311 17.2604L28.0068 16.9711C27.8532 16.9172 27.6854 16.9193 27.5331 16.977C27.3623 17.0419 27.1368 17.1258 26.9949 17.1712C26.9269 17.193 26.8559 17.2039 26.7845 17.2039H26.0013C26.0013 17.2039 25.3901 17.2832 25.2373 17.9677V19.204V19.4901C25.2373 19.4901 25.2639 20.6927 26.0601 21.2198C26.0658 21.2235 26.071 21.2275 26.0766 21.2312C26.1303 21.2674 26.1827 21.3059 26.2338 21.346C26.4344 21.5035 26.9049 21.8419 27.2351 21.8331Z" fill="#FCD462"/>
<path d="M27.7523 24.8581L27.5501 23.5835L27.7691 23.269L27.3381 22.682V22.6822V22.6842L26.9139 23.2598L26.9092 23.2662L27.1301 23.5835L26.927 24.8637L27.3381 25.6113L27.7523 24.8582V24.8581Z" fill="#E56353"/>
<path d="M27.3401 25.616L27.3793 25.5767L27.3389 25.6138L27.3401 25.616Z" fill="#E56353"/>
<path d="M27.3363 25.6138L27.2959 25.5767L27.3351 25.616L27.3363 25.6138Z" fill="#E56353"/>
<path d="M27.3359 25.6159L27.3371 25.6172L27.3383 25.6159L27.3371 25.6149L27.3359 25.6159Z" fill="#E56353"/>
<path d="M27.3437 22.6791L27.3418 22.681L27.3437 22.6798V22.6791Z" fill="#E56353"/>
<path d="M27.3379 22.6791V22.6829L27.3398 22.6816L27.3379 22.6791Z" fill="#E56353"/>
<path d="M27.3429 22.6795L27.3421 22.6799L27.3404 22.6811L27.3389 22.6822L27.7699 23.2692L28.26 23.9367L29.2799 22.0824L28.601 21.8389H28.6008L27.3429 22.6795Z" fill="#E1E6E9"/>
<path d="M26.9096 23.2664L26.9316 23.2365L27.3385 22.6822L27.3353 22.6799L26.0766 21.8389L25.3975 22.0824L26.4174 23.9367L26.9096 23.2664Z" fill="#E1E6E9"/>
<path d="M27.3418 25.616L27.3431 25.6185H27.8741H31.9292C32.2194 25.6185 32.4403 25.3581 32.393 25.0717L32.1645 23.6921C32.1029 23.3201 31.8451 23.0102 31.4904 22.8819L29.2803 22.0823" fill="#3A556A"/>
<path d="M27.3413 25.6164C27.3403 25.6154 27.339 25.6151 27.3383 25.6158C27.3377 25.6165 27.338 25.6178 27.339 25.6188C27.34 25.6198 27.3414 25.6201 27.342 25.6194C27.3427 25.6187 27.3424 25.6173 27.3413 25.6164Z" fill="#3A556A"/>
<path d="M27.7541 24.8583L27.3398 25.6114L27.3412 25.6137L27.3816 25.5766L29.3828 23.746L29.1338 23.2706L29.868 23.2593L29.2809 22.0823L28.2609 23.9366L27.7541 24.8583Z" fill="#2F4859"/>
<path d="M27.3375 25.6161L27.339 25.6147L27.3379 25.6138L27.3369 25.6156L27.3375 25.6161Z" fill="#2F4859"/>
<path d="M27.3365 25.6164L27.3359 25.6158L25.3974 22.0822L23.1873 22.8818C22.8326 23.0101 22.5748 23.3199 22.5132 23.692L22.2847 25.0716C22.2374 25.358 22.4583 25.6184 22.7485 25.6184H26.8075H27.1209H27.1248H27.3383L27.3365 25.6164Z" fill="#3A556A"/>
<path d="M27.342 25.6158L27.3408 25.6136L27.3395 25.6112L26.9284 24.8637L26.4184 23.9365L25.3984 22.0822L24.8115 23.2592L25.5455 23.2705L25.2966 23.7459L27.2978 25.5765L27.3381 25.6136L27.3395 25.6148L27.3414 25.6164L27.3435 25.6184L27.342 25.6158Z" fill="#2F4859"/>
<path d="M46.2015 28.7477H22.2354V29.4455H46.2015V28.7477Z" fill="url(#paint1_linear_554_189)"/>
<path d="M46.2015 31.7982H22.2354V32.496H46.2015V31.7982Z" fill="url(#paint2_linear_554_189)"/>
<path d="M46.2015 34.8517H22.2354V35.5495H46.2015V34.8517Z" fill="url(#paint3_linear_554_189)"/>
<path d="M46.2015 37.9H22.2354V38.5978H46.2015V37.9Z" fill="url(#paint4_linear_554_189)"/>
<path d="M46.2015 40.9481H22.2354V41.6459H46.2015V40.9481Z" fill="url(#paint5_linear_554_189)"/>
<path d="M46.2015 43.9965H22.2354V44.6943H46.2015V43.9965Z" fill="url(#paint6_linear_554_189)"/>
<path d="M41.8003 47.0521H22.2354V47.7499H41.8003V47.0521Z" fill="url(#paint7_linear_554_189)"/>
<path d="M40.6162 21.3469H48.601L40.6162 13.3622V21.3469Z" fill="#E1E6E9"/>
<path d="M48.601 21.3468H40.6162L48.601 26.8815V21.3468Z" fill="url(#paint8_linear_554_189)"/>
<path d="M27.3887 23.1193L27.3922 23.1215V23.1186L27.3936 23.1206L27.3954 23.1195L27.396 23.1187V23.1192L28.654 22.2784H28.6541V20.885C28.559 20.9505 28.4677 21.0216 28.3818 21.099C27.8298 21.598 27.2884 21.5124 27.2884 21.5124C26.9582 21.5212 26.4877 21.1828 26.2871 21.0253C26.236 20.9852 26.1836 20.9469 26.1299 20.9105V22.2782L27.3887 23.1193Z" fill="#F6C358"/>
<path d="M27.3913 22.626V22.6259L26.9844 23.1802L27.3913 22.626Z" fill="#F6C358"/>
<path d="M27.8007 23.0728L27.543 23.4427L27.781 24.9424L28.3772 23.8581L27.8007 23.0728Z" fill="#D5D6DB"/>
<path d="M27.0249 25.0346L27.2857 23.3906L27.002 22.9834L26.3701 23.8441L27.0249 25.0346Z" fill="#D5D6DB"/>
<path d="M26.986 23.1805L26.9688 23.2039L27.3929 22.6283V22.6262L26.986 23.1805Z" fill="#D5D6DB"/>
<defs>
<linearGradient id="paint0_linear_554_189" x1="33.5" y1="0" x2="33.5" y2="67" gradientUnits="userSpaceOnUse">
<stop stop-color="#F0F0F0"/>
<stop offset="1" stop-color="#71BBB3"/>
</linearGradient>
<linearGradient id="paint1_linear_554_189" x1="34.2184" y1="28.7477" x2="34.2184" y2="29.4455" gradientUnits="userSpaceOnUse">
<stop stop-color="#EBF0F3"/>
<stop offset="1" stop-color="#888B8D"/>
</linearGradient>
<linearGradient id="paint2_linear_554_189" x1="34.2184" y1="31.7982" x2="34.2184" y2="32.496" gradientUnits="userSpaceOnUse">
<stop stop-color="#EBF0F3"/>
<stop offset="1" stop-color="#888B8D"/>
</linearGradient>
<linearGradient id="paint3_linear_554_189" x1="34.2184" y1="34.8517" x2="34.2184" y2="35.5495" gradientUnits="userSpaceOnUse">
<stop stop-color="#EBF0F3"/>
<stop offset="1" stop-color="#888B8D"/>
</linearGradient>
<linearGradient id="paint4_linear_554_189" x1="34.2184" y1="37.9" x2="34.2184" y2="38.5978" gradientUnits="userSpaceOnUse">
<stop stop-color="#EBF0F3"/>
<stop offset="1" stop-color="#888B8D"/>
</linearGradient>
<linearGradient id="paint5_linear_554_189" x1="34.2184" y1="40.9481" x2="34.2184" y2="41.6459" gradientUnits="userSpaceOnUse">
<stop stop-color="#EBF0F3"/>
<stop offset="1" stop-color="#888B8D"/>
</linearGradient>
<linearGradient id="paint6_linear_554_189" x1="34.2184" y1="43.9965" x2="34.2184" y2="44.6943" gradientUnits="userSpaceOnUse">
<stop stop-color="#EBF0F3"/>
<stop offset="1" stop-color="#888B8D"/>
</linearGradient>
<linearGradient id="paint7_linear_554_189" x1="32.0178" y1="47.0521" x2="32.0178" y2="47.7499" gradientUnits="userSpaceOnUse">
<stop stop-color="#EBF0F3"/>
<stop offset="1" stop-color="#888B8D"/>
</linearGradient>
<linearGradient id="paint8_linear_554_189" x1="44.6086" y1="21.3468" x2="44.6086" y2="26.8815" gradientUnits="userSpaceOnUse">
<stop stop-color="#EBF0F3"/>
<stop offset="1" stop-color="#888B8D"/>
</linearGradient>
</defs>
</svg>
