<svg width="14" height="14" viewBox="0 0 14 14" fill="none" xmlns="http://www.w3.org/2000/svg">
<path d="M12.8379 0.271598C12.5922 0.134037 12.322 0.0465568 12.0427 0.0141602C11.7634 -0.0182364 11.4805 0.0050858 11.2102 0.0827933C10.9398 0.160501 10.6874 0.291069 10.4672 0.467032C10.2471 0.642995 10.0635 0.860899 9.92714 1.10829L5.95375 8.30359L3.67972 6.01535C3.48229 5.80965 3.24613 5.64558 2.98501 5.53271C2.72389 5.41984 2.44304 5.36043 2.15886 5.35795C1.87468 5.35546 1.59285 5.40995 1.32982 5.51824C1.06679 5.62653 0.827823 5.78644 0.626868 5.98865C0.425913 6.19086 0.266992 6.43132 0.159378 6.696C0.0517636 6.96067 -0.00238866 7.24426 8.08092e-05 7.53022C0.00255028 7.81618 0.0615921 8.09878 0.173761 8.36153C0.28593 8.62428 0.448979 8.86192 0.653396 9.06059L4.93392 13.3679C5.33843 13.776 5.88419 14 6.44708 14L6.74351 13.9784C7.07156 13.9322 7.38448 13.8101 7.65763 13.6215C7.93079 13.433 8.15673 13.1832 8.31767 12.8919L13.6683 3.20054C13.8049 2.95336 13.8918 2.68152 13.924 2.40055C13.9562 2.11958 13.9331 1.83498 13.856 1.563C13.7789 1.29102 13.6493 1.03699 13.4746 0.815408C13.2999 0.593828 13.0836 0.409041 12.8379 0.271598Z" fill="#545454"/>
</svg>
